<svg xmlns="http://www.w3.org/2000/svg" width="21" height="21" viewBox="0 0 21 21">
    <g fill="#5A9986" fill-rule="nonzero">
        <path d="M10.5 0C4.704 0 0 4.704 0 10.5S4.704 21 10.5 21 21 16.296 21 10.5 16.296 0 10.5 0zm0 18.9c-4.63 0-8.4-3.77-8.4-8.4 0-4.63 3.77-8.4 8.4-8.4 4.63 0 8.4 3.77 8.4 8.4 0 4.63-3.77 8.4-8.4 8.4z"/>
        <path d="M5.349 12.763a1 1 0 1 1 1.414-1.414l2.454 2.454a1 1 0 1 1-1.414 1.414L5.35 12.763z"/>
        <path d="M15.715 8.71l-6.508 6.507a1 1 0 0 1-1.414-1.414L14.3 7.296a1 1 0 1 1 1.414 1.414z"/>
    </g>
</svg>
