<svg xmlns="http://www.w3.org/2000/svg" width="19" height="19" viewBox="0 0 19 19">
    <g fill="#E60C54" fill-rule="nonzero">
        <path d="M5.938 8.313h2.375v7.125H5.938zM10.688 8.313h2.375v7.125h-2.375z"/>
        <path d="M14.25 1.188C14.25.475 13.775 0 13.062 0H5.939C5.224 0 4.75.475 4.75 1.188v2.375H0v2.374h1.188v11.875c0 .713.475 1.188 1.187 1.188h14.25c.712 0 1.188-.475 1.188-1.188V5.938H19V3.563h-4.75V1.188zM7.125 2.375h4.75v1.188h-4.75V2.375zm8.313 3.563v10.687H3.562V5.937h11.876z"/>
    </g>
</svg>
