<svg xmlns="http://www.w3.org/2000/svg" width="15" height="16" viewBox="0 0 15 16">
    <g fill="#FFF" fill-rule="evenodd">
        <path fill-rule="nonzero" d="M1.233 14.118h12.594L7.53 1.523 1.233 14.118zM7.95.26l7.059 14.118a.47.47 0 0 1-.421.68H.47a.47.47 0 0 1-.42-.68L7.108.26a.47.47 0 0 1 .842 0z"/>
        <path d="M7.372 10.664L7.24 6.128 7.216 5h.996l-.024 1.128-.132 4.536h-.684zm.348 2.52c-.2 0-.37-.07-.51-.21A.723.723 0 0 1 7 12.44c0-.232.07-.418.21-.558.14-.14.31-.21.51-.21a.68.68 0 0 1 .498.21c.14.14.21.326.21.558 0 .216-.07.394-.21.534a.68.68 0 0 1-.498.21z"/>
    </g>
</svg>
