<svg xmlns="http://www.w3.org/2000/svg" width="19" height="20" viewBox="0 0 19 20">
    <g fill="#606060" fill-rule="nonzero">
        <path d="M12.152 13.119a.902.902 0 0 1 1.194-.076l.085.076 5.304 5.33a.912.912 0 0 1 0 1.285.902.902 0 0 1-1.194.075l-.086-.075-5.303-5.33a.912.912 0 0 1 0-1.285z"/>
        <path d="M8.143 0C3.646 0 0 3.663 0 8.182s3.646 8.182 8.143 8.182c4.497 0 8.143-3.663 8.143-8.182S12.64 0 8.143 0zm0 1.818c3.498 0 6.333 2.85 6.333 6.364s-2.835 6.363-6.333 6.363S1.81 11.696 1.81 8.182c0-3.515 2.835-6.364 6.333-6.364z"/>
        <path d="M5.009 8.182c0-.246.16-.45.372-.492l.082-.008h5.455c.25 0 .454.224.454.5 0 .245-.16.45-.373.492l-.081.008H5.463c-.25 0-.454-.224-.454-.5z"/>
        <path d="M8.19 5c.246 0 .45.16.492.373l.008.082v5.454c0 .251-.223.455-.5.455-.245 0-.45-.161-.491-.373l-.009-.082V5.455c0-.251.224-.455.5-.455z"/>
    </g>
</svg>
