<svg xmlns="http://www.w3.org/2000/svg" width="21" height="21" viewBox="0 0 21 21">
    <g fill="#FAD961">
        <path d="M10.5 0C4.704 0 0 4.704 0 10.5S4.704 21 10.5 21 21 16.296 21 10.5 16.296 0 10.5 0zm0 18.9c-4.63 0-8.4-3.77-8.4-8.4 0-4.63 3.77-8.4 8.4-8.4 4.63 0 8.4 3.77 8.4 8.4 0 4.63-3.77 8.4-8.4 8.4z"/>
        <path d="M9.644 14.664V8.712h1.764v5.952H9.644zm.876-6.828c-.296 0-.54-.086-.732-.258-.192-.172-.288-.394-.288-.666s.096-.492.288-.66c.192-.168.436-.252.732-.252.304 0 .55.084.738.252.188.168.282.388.282.66s-.094.494-.282.666c-.188.172-.434.258-.738.258z"/>
    </g>
</svg>
