<svg xmlns="http://www.w3.org/2000/svg" width="17" height="16" viewBox="0 0 17 16">
    <g fill="#606060">
        <path d="M10.844.969H2.406C1.612.969.97 1.612.97 2.406v5.625l.006.139c.07.729.684 1.299 1.431 1.299l1.375-.001v2.313l.007.086c.064.387.553.562.847.268L7.3 9.468h3.543c.794 0 1.437-.643 1.437-1.437V2.406c0-.794-.643-1.437-1.437-1.437zm-8.438 1h8.438c.241 0 .437.196.437.437v5.625c0 .242-.196.438-.437.438h-3.75l-.079.006c-.103.016-.2.065-.275.14l-1.959 1.958V8.969c0-.276-.224-.5-.5-.5H2.406c-.241 0-.437-.196-.437-.438V2.406c0-.241.196-.437.437-.437z"/>
        <path d="M14.594 4.719c.747 0 1.361.57 1.43 1.299l.007.138v5.625c0 .747-.57 1.362-1.299 1.431l-.138.007-1.376-.001v2.313c0 .416-.468.638-.787.41l-.066-.056-2.667-2.667H7.094c-.246 0-.45-.176-.492-.41l-.008-.09c0-.245.177-.449.41-.491l.09-.008h2.812c.106 0 .209.033.294.095l.06.051 1.958 1.958v-1.604c0-.246.178-.45.41-.492l.09-.008h1.876c.215 0 .393-.155.43-.36l.007-.078V6.156c0-.215-.155-.393-.359-.43l-.078-.007h-.938c-.276 0-.5-.224-.5-.5 0-.246.177-.45.41-.492l.09-.008h.938z"/>
    </g>
</svg>
