<?xml version="1.0" encoding="UTF-8"?>
<svg id="a" data-name="Layer 1" xmlns="http://www.w3.org/2000/svg" viewBox="0 0 207.77 305.86">
  <defs>
    <style>
      .b {
        fill: #010101;
        fill-rule: evenodd;
        stroke-width: 0px;
      }
    </style>
  </defs>
  <path class="b" d="M203.13,84.64c-1.92-1.31-6.43-2.37-7.18-4.56-.26-.75.47-.98.86-1.23.44-.29.98-.47,1.43-.77.71-.47,1.36-1.17,1.83-1.89.36-.56.63-1.26.84-1.96.34-1.13.18-2.79-.15-3.74-.82-2.36-2.45-4.03-5-4.65h-.9c-.43-.08-1.01-.12-1.59-.11-.32.07-.63.13-.95.2-.46.18-.91.37-1.37.55-2.45,1.32-4.59,4.75-3.19,8.5.3.81.78,1.5,1.28,2.11.27.26.54.53.81.79.18.36.24.75.35,1.15,0,.06.02.08.03.08,0,0-.02,0-.04,0,.05.04-.08.1.01.11.12.64.09,1.25.31,1.76.51,1.17,1.65,2.03,2.6,2.77,1.69,1.33,3.92,3.01,5.09,4.82,1.7,2.65.31,5.52-1.89,6.59-1.43.69-3.76.38-4.93-.37-1.02-.66-1.42-1.81-2.03-2.89-.8-1.43-1.74-2.78-2.73-4.03-.6-.76-1.33-1.51-2.36-1.85-.66-.21-1.53,0-1.78.42-.25.4.01.91.24,1.17.32.35.75.68.99,1.1.35.63.5,1.51.66,2.31.31,1.59.36,3.2.92,4.49,1.57,3.59,5.05,6.1,10.26,6.1,1.22,0,2.25-.02,3.24-.26,1.3-.32,2.5-.74,3.5-1.37,1.64-1.01,2.92-2.68,3.48-4.76,1.16-4.33.07-8.75-2.64-10.59ZM190.99,71.43c.28-.9,1.05-1.68,1.85-2.07.29-.09.59-.18.88-.26,1.94-.02,3.02.73,3.57,2,1.01,2.33-.53,4.36-2.44,4.8-2.56.59-4.61-2.04-3.85-4.47Z"/>
  <g>
    <path class="b" d="M69.98,161.16c-1.68-5.47-3.42-11.12-5.59-16.54-.5-1.26-1.05-2.56-1.64-3.87-.51-1.14-1.78-1.66-2.81-1.66-.28,0-.56.04-.81.11-1.34.37-2.23,1.52-2.32,2.99-1.23,19.28-1.09,35.22.43,50.17.18,1.81,1.48,3.07,3.16,3.07.88,0,1.79-.42,2.41-1.11.56-.62.83-1.39.75-2.16-1.07-10.49-1.45-21.66-1.14-34.01.51,1.62,1.01,3.24,1.5,4.82.33,1.07.66,2.14.99,3.21,2.22,7.15,4.94,15.42,9.08,23.01.6,1.11,1.28,2.26,2,3.41.6.96,1.57,1.51,2.67,1.51,1.51,0,3.13-1.16,3.21-3.09.22-4.98-.04-10-.29-14.87-.22-4.21-.44-8.55-.35-12.82.02-.71.09-1.43.17-2.06,0-.03.02-.13.03-.22v-.09c.03-.13.05-.27.07-.41.07-.48.16-.96.23-1.38.23-1.35.51-2.72.78-4.04.08-.39.16-.78.23-1.16l.08-.41c.66-3.29,1.34-6.7,1.22-10.13-.03-.95-.15-1.91-.36-2.84-.3-1.37-1.6-2.37-3.09-2.37-.28,0-.55.04-.81.11-1.65.45-2.61,2.11-2.22,3.85.01.05.03.19.06.32.03.17.04.26.06.32.02.22.04.44.05.68.03.63.01,1.33-.05,2.24-.03.41-.07.81-.11,1.12-.01.14-.03.27-.05.41,0,.02-.02.14-.03.24l-.02.14c-.13.93-.3,1.87-.45,2.66-.2,1.09-.42,2.19-.64,3.26-.49,2.43-.99,4.94-1.29,7.46-.45,3.65-.24,7.4-.05,11.02.03.6.06,1.2.09,1.79.04.79.08,1.58.12,2.37.01.25.03.49.04.74-1.28-3.26-2.35-6.44-3.27-9.29-.7-2.17-1.38-4.38-2.04-6.52Z"/>
    <path class="b" d="M112.23,158.96c1.45-.65,2.9-1.31,4.3-1.96,7.02-3.24,13.66-6.29,21.17-7.59.76-.13,1.43-.59,1.88-1.3.5-.79.66-1.76.42-2.61-.38-1.39-1.61-2.29-3.13-2.29-.22,0-.45.02-.67.06-7.94,1.38-15.31,4.77-22.43,8.06-2.24,1.03-4.55,2.1-6.83,3.08-.7.3-1.23.9-1.49,1.69-.3.9-.2,1.93.25,2.69.06.1.13.2.2.3-.01,1.71-.04,3.44-.07,5.12-.08,5.11-.17,10.4.17,15.61.11,1.77.27,3.4.46,4.97-.36.54-.56,1.16-.56,1.76,0,1.01.44,1.88,1.23,2.46.16.82.34,1.62.53,2.39.43,1.77.99,3.48,1.65,5.09.67,1.64,1.57,3.53,3.14,5.07,1.72,1.7,3.78,2.56,6.13,2.56,4.23,0,8.71-2.81,12.31-5.07.99-.62,1.92-1.2,2.76-1.68.72-.41,1.24-1.08,1.46-1.91.22-.83.11-1.71-.31-2.43-.56-.96-1.61-1.56-2.74-1.56-.55,0-1.1.14-1.58.41-1.09.62-2.17,1.28-3.21,1.93-1.45.9-2.96,1.83-4.49,2.61-.26.13-.54.27-.91.44-.06.03-.12.06-.18.08l-.05.02-.12.05c-.06.03-.13.05-.15.06-.6.24-1.21.42-1.82.56-.11.03-.23.05-.34.07,0,0,0,0,0,0-.16.02-.35.03-.58.03h-.15c-.08,0-.17,0-.25-.02-.14-.03-.29-.07-.46-.12-.09-.05-.18-.1-.25-.13-.1-.05-.2-.1-.25-.13-.02-.01-.04-.03-.07-.05-.03-.02-.05-.04-.08-.07-.04-.03-.08-.07-.11-.09-.13-.12-.28-.27-.45-.47-.03-.04-.05-.07-.07-.09-.04-.05-.09-.11-.11-.14-.13-.18-.26-.4-.37-.58-.21-.35-.39-.73-.55-1.05l-.05-.11c-.04-.09-.09-.21-.12-.26-.05-.14-.11-.27-.16-.4-.29-.73-.56-1.54-.85-2.47-.2-.64-.37-1.28-.53-1.94,1.7-.23,3.47-.65,5.28-1.27,3.92-1.33,7-3.21,9.14-5.57,1.2-1.32,1.18-3.23-.03-4.44-.59-.59-1.42-.92-2.28-.92s-1.67.34-2.23.96c-.4.44-.83.85-1.33,1.26l-.02.02-.03.02c-.11.08-.23.17-.36.26-.31.22-.64.43-.93.6-.54.33-1.13.65-1.86,1-.18.08-.36.17-.54.25l-.06.03h-.01s-.09.04-.09.04l-.04.02c-.32.13-.67.26-1.13.42-1.36.48-2.82.83-4.32,1.06h-.06c-.06.01-.13.02-.19.03-.07-.66-.14-1.35-.2-2.1-.48-5.64-.38-11.42-.29-17.01.03-1.74.06-3.53.07-5.31Z"/>
    <path class="b" d="M35.4,239.36c.04-.92-.31-1.83-.92-2.44-.59-.59-1.36-.91-2.17-.91s-1.59.3-2.25.86c-.3.25-.6.5-.91.75-.01,0-.03.02-.04.03-.03.03-.08.06-.15.11-.16.12-.33.24-.5.36-.69.5-1.44,1-2.29,1.51-.69.42-1.44.84-2.29,1.27-.43.22-.86.42-1.19.57q-.5.23-.89.38l-.2.08c-1.71.67-3.46,1.16-5.21,1.44h-.06s-.07.02-.07.02h-.07s-.05.01-.05.01c-.21.03-.42.04-.63.06-.45.04-.9.05-1.24.06-.07,0-.15,0-.22,0-.29,0-.61-.01-.99-.03-.2-.01-.4-.03-.6-.05-.07,0-.13-.01-.17-.02h-.04c-.06-.02-.12-.03-.18-.04-.77-.13-1.53-.33-2.27-.61l-.07-.03h-.01s-.01-.01-.01-.01l-.06-.03c-.14-.06-.29-.14-.43-.21l-.03-.02c-.3-.15-.61-.34-.96-.58-.02-.02-.08-.06-.13-.09l-.02-.02c-.07-.06-.14-.12-.21-.19-.17-.15-.34-.33-.57-.59h0c-.07-.1-.13-.2-.19-.29-.1-.15-.2-.33-.3-.54-.03-.1-.07-.2-.11-.3-.04-.11-.09-.23-.11-.28-.08-.26-.14-.53-.19-.77,0-.04-.01-.07-.02-.1v-.07c-.02-.06-.03-.14-.03-.18-.03-.36-.04-.73-.04-1,0-.31.02-.63.04-.89,0-.06.02-.22.04-.38.02-.18.03-.28.04-.33.09-.56.21-1.17.37-1.84.29-1.21.71-2.5,1.31-4.06.12-.32.25-.64.38-.96.06-.15.13-.31.19-.46,0,0,0-.02.02-.04l.03-.07c.23-.54.49-1.1.82-1.77,1.19-2.42,2.51-4.83,3.91-7.15,3.24-5.35,6.39-9.71,11.23-13.57.05-.04.12-.09.25-.19l.15-.11c.22-.17.46-.33.69-.49.42-.29.88-.58,1.4-.89.38-.22.8-.45,1.28-.69.24-.12.49-.23.7-.33.12-.05.24-.1.37-.14.88-.34,1.82-.59,2.8-.76.02,0,.03,0,.04,0,.03,0,.07,0,.11-.01.07,0,.15-.02.18-.02.26-.03.52-.04.76-.05.16,0,.31-.01.47-.01.33,0,.67.01,1.06.04.07,0,.14,0,.2,0,1.62,0,3.04-1.48,3.04-3.17s-1.3-3.03-3.09-3.16c-.4-.03-.81-.05-1.21-.05-5.24,0-10.53,2.48-15.73,7.36-4.06,3.82-7.72,8.69-11.5,15.34-2.84,5-5.58,10.4-6.42,16.05-.56,3.79-.09,6.84,1.43,9.32,1.77,2.88,5.1,4.92,9.12,5.59,1.11.18,2.26.28,3.42.28,6.53,0,13.9-3.07,20.22-8.42.6-.51.95-1.25.98-2.09Z"/>
    <path class="b" d="M37.72,264.12c1.93-.86,4.16-1.68,6.14-2.24,2.41-.69,4.57-1.06,7.02-1.21,1.77-.11,3.11-1.47,3.11-3.16s-1.43-3.17-3.05-3.17c-.06,0-.11,0-.17,0-5,.31-10.11,1.63-15.62,4.04-1.32.58-2.62,1.19-3.91,1.83,2.02-2.28,4.26-4.41,6.41-6.41,1.01-.94,2.02-1.9,2.99-2.83,1.06-1.01,2.16-2.05,3.24-3.06,1.19-1.1,2.44-2.19,3.65-3.25.77-.68,1.58-1.37,2.36-2.07,1.93-1.73,4.45-4.05,6.77-6.64,1.73-1.93,3.88-4.54,5.21-7.57,1.31-2.98,1.6-5.89.85-8.65-.66-2.44-2.24-4.55-4.46-5.94-2.21-1.39-4.84-1.83-6.88-2.06-1-.11-2.06-.17-3.23-.17-1.07,0-2.21.04-3.7.14-1.34.09-2.68.21-3.99.33-.87.08-1.78.17-2.67.24-1.12.09-1.99.14-2.8.15-.12,0-.23,0-.35,0-.27,0-.53,0-.79-.02-.17,0-.34-.02-.51-.03h-.08s-.02,0-.02,0c-.2-.03-.38-.08-.55-.13-.01,0-.03-.02-.04-.03-.47-.29-1.02-.45-1.58-.45-1.14,0-2.2.6-2.77,1.57-.87,1.5-.38,3.39,1.11,4.32,1.57.97,3.5,1.1,5.2,1.1h.19c1.75,0,3.5-.18,5.19-.34.31-.03.61-.06.91-.09,2.31-.21,4.56-.41,6.78-.43.15,0,.3,0,.44,0,.97,0,1.91.04,2.78.12.05,0,.18.02.3.03.09.01.18.02.24.03.14.02.28.04.42.07.47.08.95.19,1.43.33.22.06.44.14.61.2.08.03.16.06.25.09.34.15.68.34,1.01.55.05.03.1.07.16.11.11.09.22.19.33.3.09.09.19.19.31.34.05.07.1.14.14.22.08.13.17.29.28.5,0,.02.02.04.03.06v.03s.02.02.02.02c.14.39.26.83.35,1.35.01.11.02.22.03.34.01.19.01.4,0,.69,0,.1-.01.2-.02.29-.04.23-.1.49-.18.82-.07.27-.17.55-.24.76-.04.12-.09.25-.14.37,0,0,0-.01.02-.03,0,.01-.01.03-.02.04-.23.52-.52,1.07-.9,1.72-.29.49-.62,1-1.06,1.62-.16.22-.32.44-.48.66l-.16.2-.05.06c-.14.17-.29.36-.43.54-2.05,2.49-4.41,4.74-6.45,6.6-1.22,1.12-2.49,2.23-3.71,3.3-.86.75-1.74,1.53-2.61,2.3-1.16,1.04-2.29,2.12-3.39,3.18-.79.76-1.62,1.55-2.44,2.31-2.28,2.11-5.13,4.74-7.62,7.5-3.01,3.34-4.9,6.15-6.1,9.1-.32.79-.56,1.54-.74,2.29-.23,1-.03,1.97.57,2.71.6.76,1.52,1.19,2.53,1.19.51,0,1-.11,1.48-.33,2.14-.98,4.26-2.05,6.32-3.09,2.2-1.11,4.47-2.26,6.75-3.28Z"/>
    <path class="b" d="M58.58,255.88c.22,1.52.33,2.86.34,3.97.01,1.74,1.43,3.16,3.17,3.16s3.04-1.3,3.16-3.1c.33-4.71,1.02-9.74,2.14-15.79,4.68-.45,9.3-1.59,13.78-2.69.24-.06.47-.12.71-.17.13.27.26.54.39.81.09.19.18.39.27.58l.02.04.02.05v.03s.02.03.02.03c.15.38.3.75.45,1.13,1.21,3.11,2.32,6.35,3.3,9.64.56,1.88,1.01,3.58,1.37,5.21.16.73.3,1.47.42,2.18l.02.12v.07s.03.12.03.12c.01.1.03.23.04.28.03.28.05.58.07.9.09,1.78,1.45,3.12,3.17,3.12.86,0,1.7-.37,2.32-1.02.58-.61.88-1.39.85-2.2-.15-3.16-.98-6.32-1.82-9.28-.9-3.18-1.98-6.44-3.31-9.97-.42-1.11-.87-2.21-1.38-3.35.54-.24,1.01-.65,1.34-1.2.47-.77.61-1.7.38-2.53-.38-1.38-1.62-2.3-3.1-2.3-.25,0-.49.03-.74.08-.28.06-.56.12-.83.18-.14-.25-.28-.5-.43-.74-.63-1.08-1.29-2.16-1.93-3.22-1.29-2.13-2.63-4.34-3.8-6.57-.44-.83-.86-1.7-1.27-2.58-.09-.2-.18-.4-.27-.6v-.02c-.04-.08-.07-.13-.08-.17-.04-.11-.08-.2-.12-.29-.17-.43-.35-.89-.54-1.42-.3-.84-.56-1.71-.8-2.67-.1-.42-.2-.89-.31-1.46-.04-.19-.07-.39-.1-.59v-.05s-.01-.05-.02-.07c-.02-.13-.03-.27-.04-.4-.19-1.81-1.49-3.07-3.16-3.07-.99,0-1.99.53-2.59,1.33-1.18.19-2.38,1-2.61,2.37-.92,5.45-2.1,10.95-3.25,16.28-.56,2.6-1.13,5.27-1.67,7.92-.16,0-.32-.01-.48-.02-.04,0-.09,0-.13,0-.82,0-1.6.35-2.2.98-.56.6-.88,1.39-.88,2.18,0,1.51,1.03,2.74,2.48,3.08-.56,3.07-1,5.88-1.34,8.53-.85.71-1.24,1.86-1.06,3.16ZM70.02,231.37c.6-2.76,1.2-5.58,1.78-8.41,1.64,3.8,3.81,7.39,5.92,10.88l.62,1.04c.13.21.25.42.38.63-1.63.4-3.3.8-4.95,1.16-1.95.42-3.57.72-5.07.93.43-2.08.89-4.18,1.33-6.22Z"/>
    <path class="b" d="M112.71,245.99c4.25-1.34,10.15-3.9,14.12-8.53,1.94-2.26,3.09-4.6,3.43-6.95.4-2.78-.14-5.53-1.7-8.67-2.31-4.67-6.98-7.99-12.8-9.12-2.1-.41-4.32-.6-6.78-.6-3.29,0-6.52.35-9.52.73-1.49.19-3.01.4-4.35.59-.61.08-1.21.17-1.82.25l-.17.02-.29.04c-.34.04-.67.09-1.01.13-1.85.23-4.01.48-6.13.48-.09,0-.19,0-.28,0h-.1s-.05,0-.05,0c-.83,0-1.62.34-2.22.95-.58.59-.91,1.4-.91,2.22,0,1.72,1.41,3.14,3.15,3.17.14,0,.29,0,.43,0,2.16,0,4.34-.25,6.22-.48.83-.1,1.64-.21,2.49-.33,0,7.2,1.22,14.39,2.39,21.35-.66.42-1.16,1.08-1.37,1.83-.46,1.66.5,3.36,2.18,3.88.06.02.11.04.17.05.45,2.4.99,4.8,1.51,7.13.39,1.71.78,3.48,1.14,5.22.21,1.02.39,1.96.55,2.85.07.41.14.82.21,1.23.03.21.07.42.1.64l.03.18c.09.69.13,1.23.14,1.72v.04c-.52,1.38.08,3.05,1.39,3.82.48.28,1.02.43,1.57.43,1.09,0,2.11-.57,2.74-1.52,1.05-1.59.66-3.88.38-5.56-.04-.24-.08-.47-.11-.69-.39-2.64-.96-5.26-1.46-7.58-.3-1.36-.61-2.75-.91-4.08-.23-1.04-.47-2.08-.7-3.12,0-.04-.02-.08-.03-.12.1,0,.2-.01.3-.02,2.64-.19,5.36-.73,8.09-1.59ZM103.94,241.29c-.24.01-.49.02-.74.03l-.03-.2c-.13-.81-.26-1.61-.39-2.42-1.16-6.93-2.11-13.22-2.03-19.67,2.61-.31,4.7-.49,6.69-.56.52-.02,1.04-.03,1.55-.03.76,0,1.52.02,2.25.06.56.03,1.15.08,1.75.15h.1s.05.02.05.02l.12.02.14.02c.29.04.61.1.97.17,1.12.22,2.21.53,3.23.93h.03c.09.05.18.09.27.14.25.12.5.25.69.35.46.24.92.53,1.4.87l.1.07h0s.03.03.03.03c.04.03.08.06.12.1.21.17.41.36.58.51.33.31.66.66,1,1.08.06.08.12.17.18.25.07.1.15.2.18.24.13.2.27.41.44.71.16.27.3.55.41.76.07.13.13.27.19.4.02.05.08.17.12.27l.04.08c.2.5.37,1.02.51,1.52.05.2.1.42.16.7v.03s0,0,0,0c0,.1.02.19.02.29.02.31.02.64-.01,1,0,.05-.02.11-.03.21-.02.11-.04.25-.05.31-.05.22-.11.45-.21.75-.02.05-.06.18-.11.29-.03.07-.05.13-.07.18-.06.12-.12.25-.18.37-.21.41-.48.85-.82,1.33-.03.04-.06.08-.09.12l-.02.03s-.05.07-.07.09c-.18.22-.36.42-.51.59-.35.39-.76.79-1.24,1.22-.25.22-.53.46-.89.74-.05.04-.14.1-.23.17-.08.07-.17.13-.2.15-.2.15-.43.3-.72.5-.85.57-1.79,1.12-2.87,1.67-.46.24-.96.48-1.54.74-.04.02-.14.06-.25.11-.11.05-.21.09-.27.12-.23.09-.45.18-.68.27-1.01.39-2.1.75-3.24,1.07-1.03.29-2.11.54-3.22.73-.24.04-.48.08-.72.12l-.15.02c-.08,0-.17.02-.25.03-.47.05-.96.1-1.5.13Z"/>
    <path class="b" d="M132.85,247.6c1.6-3.09,3.25-6.28,4.59-9.58,1.48-3.65,2.61-7.79,3.44-12.66.81-4.75,1.09-9.33.82-13.61-.06-.9-.15-1.85-.28-2.9-.23-1.82-1.5-3.05-3.16-3.05-.89,0-1.83.44-2.45,1.15-.55.62-.8,1.38-.7,2.14,1,7.97,0,16.39-2.95,25.02-1.22,3.55-2.97,6.92-4.83,10.49-1.83,3.51-3.72,7.13-5.04,10.93-.63.32-1.12.88-1.41,1.6-.37.95-.3,2,.19,2.82l.32.53.32.53c.57.96,1.6,1.53,2.75,1.53s2.17-.57,2.71-1.5c1.33-.13,2.76-.2,4.36-.2s3.35.07,5.54.2c2.51.16,5.11.36,7.95.62,2.09.19,3.96.28,5.73.28h.03c2.19,0,4.31-.06,6.25-.77,1.91-.69,3.11-1.86,3.45-3.38.39-1.72-.24-3.43-1.87-5.08-.59-.6-1.38-.92-2.24-.92s-1.66.33-2.25.92c-.75.75-1.05,1.81-.87,2.81-.74.07-1.56.1-2.55.1h-.3c-1.64,0-3.37-.1-5.46-.29-2.78-.26-5.66-.47-8.55-.65-1.71-.1-3.24-.15-4.69-.15-.79,0-1.54.01-2.27.04.67-1.56,1.46-3.15,2.43-5.05.33-.64.66-1.27.99-1.91Z"/>
    <path class="b" d="M200.98,224.57c-.22,0-.44.02-.66.06-5.79.98-11.73,2.09-18.16,3.39l-.12-.22c-.1-.19-.2-.37-.3-.56-.3-.54-.6-1.1-.87-1.66-.03-.06-.06-.12-.08-.19v-.02c-.11-.26-.21-.52-.31-.79-.36-1-.69-2.04-1-3.05l-.17-.54c-.91-2.92-1.77-5.55-3.02-8.06-.7-1.41-1.51-2.59-2.4-3.52.13-.34.26-.67.39-.98.29-.7.25-1.5-.12-2.25-.41-.85-1.2-1.52-2.06-1.76-.29-.08-.57-.12-.85-.12-1.29,0-2.43.85-3,2.22-.14.35-.29.71-.43,1.09-.64.43-1.11,1.07-1.31,1.79-.18.64-.14,1.32.09,1.93-1.57,5.61-2.13,11.53-2.5,17.09-.07,1.08-.14,2.23-.2,3.52-5.42,1.23-11.17,2.58-18,4.22l-1.62.39c-.79.19-1.46.7-1.9,1.43-.44.75-.57,1.65-.34,2.47.38,1.38,1.62,2.31,3.08,2.31.26,0,.52-.03.78-.09,6.74-1.63,12.41-2.96,17.71-4.18-.18,4.37-.37,8.86-.79,13.26-.16,1.67-.33,3.1-.54,4.46-.49.43-.8.98-.9,1.6-.27,1.7-.3,3.37-.3,4.78,0,.92.38,1.75,1.06,2.33.59.5,1.39.79,2.19.79,1.46,0,2.63-.91,2.97-2.31,1.93-7.89,2.29-16.36,2.58-23.16.03-.77.06-1.53.09-2.3l.04-.9c3.01-.67,5.97-1.31,8.82-1.91,1.77,3.26,3.48,6.47,5.01,9.72,1.13,2.39,2.05,4.78,3.01,7.3.42,1.09.85,2.22,1.3,3.34.65,1.63,1.47,3.53,2.65,5.3.61.92,1.3,1.78,2.06,2.57.98,1.02,2,1.53,3.05,1.53.77,0,1.51-.28,2.22-.83.8-.63,1.13-1.72.92-3.05-.06-.36-.21-.73-.48-1.12,0,0-.01-.02-.02-.03,0,0-.01-.02-.02-.02-.26-.91-1.05-1.66-2.07-1.96-.42-.58-.83-1.26-1.29-2.12-.2-.38-.39-.78-.54-1.12-.08-.18-.17-.37-.25-.55v-.02s-.03-.05-.03-.05l-.02-.04-.06-.15c-.34-.83-.64-1.64-1-2.61-1.54-4.2-3.2-8.06-5.05-11.79-.97-1.94-1.99-3.88-2.92-5.62,5.21-1.04,10.08-1.95,14.85-2.77.55-.1,1.1-.19,1.65-.28.76-.13,1.43-.59,1.88-1.29.5-.79.66-1.77.43-2.62-.38-1.39-1.61-2.29-3.13-2.29ZM170.31,230.52c.04-.7.08-1.34.12-1.96.13-2,.29-3.85.48-5.66.21-1.95.37-3.08.7-4.95.08.21.16.43.24.64.22.59.44,1.23.71,2.07.26.78.5,1.57.74,2.34.16.53.33,1.05.5,1.58.45,1.4.89,2.61,1.37,3.71.15.34.31.69.5,1.07-1.75.37-3.55.76-5.36,1.16Z"/>
    <polygon class="b" points="191.85 210.8 191.85 203.71 194.51 203.71 194.51 202.76 188.13 202.76 188.13 203.71 190.78 203.71 190.78 210.8 191.85 210.8"/>
    <path class="b" d="M203.25,210.8v-8.04h-1.43l-1.93,5.6c-.19.57-.34,1-.43,1.29-.08-.26-.21-.66-.38-1.19l-1.9-5.7h-1.6v8.04h1.03v-6.85l2.33,6.85h.96l2.34-6.73v6.73h1.03Z"/>
    <path class="b" d="M55.05,24.25c1.52-.64,9.08-4.16,10.21-3.6,2.62,1.17.64,8.2-1.4,9-3,1.17-6.18-.76-8.01-1.62.08.43.15.85.23,1.28-1.04.19-2.09.39-3.13.58.19.15.39.31.58.46v.35c-.7.42-1.39.85-2.09,1.28-.07.49-.17.21.35.46.13,2.26-1.44,4.81-2.09,7.31-.92,3.59-.73,3.89-.93,8.07-.1,5.81-.12,13.88,3.63,27.77,3.75,13.9,5.35,19.29,8.41,25.54,3.33,5.15,7.07,10.59,11.87,14.1,4.67,3.41,12.39,5.4,14.16,11.72v.12c-.08.04-.15.08-.23.12-2.02-.57-3.62-2.09-5.22-3.13-4.81-3.14-9.68-5.7-14.5-8.7-2.31-1.43-5.13-4.3-8.47-4.41-1.43,2.71-2.86,5.42-4.29,8.12-.54,2.01-1.08,4.02-1.62,6.03-.75,1.89-2.38,3.93-1.62,6.5.08.04.15.08.23.12.12-.5.23-1.01.35-1.51.12-.04.23-.08.35-.12.12.04.23.08.35.12-.02,2.24-.39,3.92-.12,5.8h.12c.57-1.47.49-1.81,1.86-2.44-.01-4.54,1.23-15.09,3.83-16.24-.27,2.75-1.31,10.5-.7,12.76.08.04.15.08.23.12.04-.46.08-.93.12-1.39.77-.44,1.38-.51,1.74-1.39-.04-1.7-.08-3.4-.12-5.11-.25-1.85.4-4.62,1.04-5.92v-.23c1.71.32,3.09,5.96,3.48,8.01.91.44,1.67.5,2.32,1.16.67-.09-1.97-6.31-2.44-7.43.12-.15.23-.31.35-.46,5.94,3,11.39,6.8,16.94,10.21,2.03,1.25,7.77,3.4,8.93,5.11,1.65,2.43,1.99,6.02,3.02,8.93,1.03,3.35,2.05,6.69,3.08,10.04,0,.03-.01.07-.02.12-.07.37-.15.75-.23,1.12-.17.82-.35,1.65-.54,2.47-.37,1.63-.76,3.26-1.15,4.89-.81,3.37-1.62,6.74-2.27,10.13-1.2,6.19-2.01,12.5-1.03,18.84-.58,2.05-1.33,4.03-2.37,5.3-2.47,3.02-15.17,1.88-18.91,4.64-.04.12-.08.23-.12.35.8-.24,1.25-.48,2.2-.35.04.19.08.39.12.58,1.98.45,4.83-.65,6.85-.93l.12.23c-1.06.63-1.51,1.19-1.97,2.44v.58c.08.04.15.08.23.12.22-.67.53-1.13,1.16-1.39.87-.35,1.68.38,2.32.23,2.35-.54,4.24-2.42,7.19-2.67.15.62.31,1.24.46,1.86.12.08.23.15.35.23.04-.27.08-.54.12-.81,1.32-.7,3.6-1.31,5.34-1.62l4.76.23c.92-.35,1.56-.72,2.78-.23-.48-1.01-1.51-1.36-2.7-1.52.04-.23.02-.48-.08-.73-.31-.76-.58-1.52-.82-2.28-.31-.98-.39-1.32-.58-2.22-.36-1.66-.56-3.31-.67-4.97-.19-2.82-.05-5.62.25-8.4.63-2.8,1.05-5.77,1.45-8.77.21-.98.43-1.97.67-3,.76-3.3,1.59-6.59,2.33-9.89.37-1.66.71-3.32,1.02-4.99.18-.97-1.53-1.87-3.02-1.97-1.62-3.76-3.21-9.17-3.31-13.45h.12c2.67,1.53,1.9,6.76,4.06,8.82.78.67,2.14-.29,3.25,0,1.31.19,2.63.39,3.94.58.93-.15,1.86-.31,2.79-.46.56.17,2.05,1.14,3.13.81,1.66-.51,3.27-.91,5.8-.93.04-.08.08-.15.12-.23-1.59-5.3-2.77-10.27-4.87-14.97-2.04-4.57-5.21-8.47-7.77-12.65-.47-.76-.94-1.52-1.42-2.28l21.46,6.92,14.28-57.53,28.56-36.72,24.28,13.67v29.31h0s0,.03,0,.05c0,.45.37.82.82.82s.82-.36.82-.82c0-.02,0-.03,0-.05h0v-28.29l5.51,2.86h7.14L157.38,7.51l-12.44,12.78-80.1,33.85c-.39-.46-.77-.91-1.1-1.32-.31-.21-.58-.45-.8-.73-.89-1.12-1.81-2.49-2.32-3.95-.19-1.01-.39-2.01-.58-3.02-.28-12.67,6.32-6.02,11.75-11.4,3.2-3.17,4.38-6.75,5.31-12.51.16-.97,0-4.18,0-4.18.15-.08.31-.15.46-.23-.12-.23-.23-.46-.35-.7.26-.21.4-.23.93-.23-.27-.31-.54-.62-.81-.93.35.04.7.08,1.04.12-.3-.41-.63-.62-.81-1.16h.81c-.27-.15-.54-.31-.81-.46.23-.19.16-.16.58-.23-.19-.04-.39-.08-.58-.12-.06-.42,0-.22.23-.58h-.58c-.04-.08-.08-.15-.12-.23.66-.08,1.32-.15,1.97-.23-.14-.38-.16-.32-.35-.58.15-.08.31-.16.46-.23h.23c-.31-.04-.62-.08-.93-.12-.04-.08-.08-.15-.12-.23.7-.19,1.39-.39,2.09-.58-.7-.04-1.39-.08-2.09-.12v-.12c.58-.56,2.15-.97,3.13-1.04.04-.08.08-.15.12-.23-1.24.04-2.48.08-3.71.12v-.35c8.33-1.03,16.39-3.48,25.87-3.37v-.12c-4.72-.87-10.9-.12-15.2.58-5.1.83-9.89.42-14.16,1.97h-.35v-.23c5.42-1.57,11.61-3.47,17.4-4.87,3.64-.77,7.27-1.55,10.91-2.32h.23c.04-.08.08-.15.12-.23h-1.62c-3.17.46-6.34.93-9.51,1.39-4.76,1.08-9.52,2.17-14.27,3.25-1.97.66-3.95,1.32-5.92,1.97-.93-.08-1.86-.15-2.79-.23-2.63.38-4.66.74-6.5,1.86-3.03,1.85-6.33,4.66-8.47,7.43l-2.09,3.02c-5.8,4.37-11.65,8.4-17.64,12.65-2.05,1.59-4.1,3.17-6.15,4.76-.08.12-.15.23-.23.35,4.07-1.15,7.97-3.52,11.6-5.22,5.35-2.5,10.47-4.68,15.9-6.96ZM126.37,101.28l-13.26-3.47,21.83-27.34-8.57,30.81ZM147.8,20.9l16.12,3.47-71.38,70.42c-.44-.64-.92-1.33-1.45-2.09-5.4-7.66-12.89-24.33-18.86-30.46-1.85-1.9-3.52-3.7-4.98-5.34l80.55-36.01Z"/>
    <path class="b" d="M88.78,291.54c-.06-.23-.16-.43-.3-.61-.14-.18-.33-.33-.56-.44-.23-.11-.51-.17-.83-.17-.58,0-1.04.17-1.37.5-.33.33-.54.81-.65,1.43h3.8c0-.24-.03-.48-.09-.71Z"/>
    <path class="b" d="M53.18,296.46c.7,0,1.22-.25,1.55-.74.33-.49.5-1.25.5-2.25s-.17-1.76-.5-2.25c-.33-.49-.85-.74-1.55-.74s-1.25.25-1.58.74c-.33.49-.5,1.24-.5,2.25s.17,1.76.5,2.25c.33.5.86.74,1.58.74Z"/>
    <path class="b" d="M118.16,296.71c.39,0,.74-.07,1.03-.21.29-.14.59-.36.89-.67v-1.41c-.61.03-1.11.08-1.5.16-.39.08-.7.18-.93.29-.23.12-.39.25-.48.4-.09.15-.13.32-.13.49,0,.35.09.59.29.73.19.14.47.21.83.21Z"/>
    <path class="b" d="M78.58,291.54c-.06-.23-.16-.43-.3-.61-.14-.18-.33-.33-.55-.44-.23-.11-.51-.17-.83-.17-.58,0-1.04.17-1.37.5-.33.33-.54.81-.65,1.43h3.8c0-.24-.03-.48-.09-.71Z"/>
    <path class="b" d="M108.5,296.46c.7,0,1.22-.25,1.55-.74.33-.49.5-1.25.5-2.25s-.17-1.76-.5-2.25c-.33-.49-.85-.74-1.55-.74s-1.25.25-1.58.74c-.33.49-.5,1.24-.5,2.25s.17,1.76.5,2.25c.33.5.86.74,1.58.74Z"/>
    <path class="b" d="M146.26,291.54c-.06-.23-.16-.43-.3-.61-.14-.18-.33-.33-.56-.44-.23-.11-.51-.17-.83-.17-.58,0-1.04.17-1.37.5-.33.33-.54.81-.65,1.43h3.8c0-.24-.03-.48-.09-.71Z"/>
    <path class="b" d="M30.43,305.86h142.64v-27.79H30.43v27.79ZM157.18,290.21c.17-.39.42-.73.75-1.03.33-.3.75-.53,1.26-.7.5-.17,1.09-.26,1.77-.26.37,0,.72.03,1.07.1.34.07.67.16.97.28.3.12.58.26.83.42.25.16.47.34.66.53l-.69,1.07c-.08.12-.16.21-.25.26-.09.05-.2.08-.34.08-.14,0-.29-.03-.43-.09-.14-.06-.3-.13-.47-.2-.17-.07-.36-.14-.57-.2-.21-.06-.45-.09-.72-.09-.39,0-.68.07-.89.22-.21.15-.31.35-.31.61,0,.19.07.35.2.47.13.12.31.23.54.33.22.09.48.18.76.27.28.09.57.18.86.29.29.1.58.23.86.37.28.14.53.31.76.52.22.21.4.46.54.75.13.29.2.65.2,1.06,0,.51-.09.97-.27,1.4-.18.43-.46.79-.82,1.1-.36.31-.81.55-1.34.72-.53.17-1.15.25-1.84.25-.35,0-.69-.03-1.04-.1-.35-.07-.68-.15-1.01-.27-.32-.11-.62-.24-.9-.4-.27-.15-.51-.32-.71-.5l.71-1.12c.08-.13.18-.23.3-.31.12-.08.28-.11.47-.11.18,0,.34.04.48.12.14.08.29.16.46.26.16.09.36.18.57.26.22.08.5.12.83.12.24,0,.44-.02.6-.07.16-.05.29-.12.39-.2.1-.09.17-.18.22-.29.05-.1.07-.21.07-.32,0-.2-.07-.37-.21-.5-.14-.13-.32-.24-.54-.34-.22-.09-.48-.18-.76-.27-.29-.08-.58-.17-.87-.28-.3-.11-.58-.23-.87-.38-.29-.15-.54-.33-.76-.56-.22-.23-.4-.5-.54-.83-.14-.33-.21-.72-.21-1.19,0-.43.08-.84.25-1.23ZM150.21,288.38h1.81c.15,0,.28.01.38.04.1.03.19.07.26.12.07.06.12.13.16.22.04.09.07.2.09.33l.15.86c.32-.55.69-.98,1.1-1.3.41-.32.88-.48,1.41-.48.46,0,.83.11,1.12.32l-.2,2.24c-.03.14-.09.24-.16.3-.08.05-.18.08-.31.08-.05,0-.12,0-.21,0-.09,0-.17-.02-.27-.03s-.18-.02-.28-.03c-.09,0-.18-.01-.26-.01-.45,0-.8.12-1.07.36-.26.24-.49.57-.67.99v6.18h-3.05v-10.19ZM139.82,291.31c.23-.61.57-1.14,1-1.6.44-.46.96-.82,1.58-1.09.62-.27,1.32-.4,2.1-.4.67,0,1.29.1,1.85.31.56.21,1.04.51,1.44.91.4.4.72.89.94,1.47.23.58.34,1.24.34,1.97,0,.23,0,.42-.03.56-.02.14-.06.26-.11.34-.05.09-.12.14-.21.18-.09.03-.2.05-.34.05h-5.87c.1.85.36,1.47.78,1.85.42.38.96.57,1.62.57.35,0,.66-.04.91-.13.25-.08.48-.18.68-.29.2-.1.38-.2.55-.28.17-.09.34-.13.53-.13.24,0,.42.09.55.26l.88,1.09c-.31.36-.65.65-1.02.88-.36.23-.74.4-1.12.53-.38.13-.77.22-1.15.27-.38.05-.75.07-1.09.07-.71,0-1.38-.12-2.01-.35-.62-.23-1.17-.58-1.64-1.04-.47-.46-.84-1.03-1.11-1.71-.27-.68-.41-1.47-.41-2.38,0-.68.12-1.33.35-1.93ZM132.18,288.69l1.62-.31.6-2.49c.08-.31.3-.47.67-.47h1.59v2.98h2.53v2.08h-2.53v5.06c0,.24.06.43.17.58.12.15.28.23.5.23.11,0,.21-.01.28-.04.08-.02.14-.05.2-.08.06-.03.11-.06.16-.08.05-.02.11-.04.17-.04.09,0,.16.02.22.06.05.04.11.11.17.2l.92,1.44c-.39.29-.83.52-1.33.66s-1,.22-1.52.22c-.48,0-.91-.07-1.28-.21-.37-.14-.68-.34-.93-.6-.25-.26-.44-.57-.58-.94-.13-.37-.2-.78-.2-1.23v-5.27h-.86c-.16,0-.29-.05-.4-.15-.11-.1-.17-.25-.17-.45v-1.19ZM128.77,295.28c-.14-.13-.32-.24-.54-.34-.22-.09-.48-.18-.76-.27-.28-.08-.57-.17-.87-.28-.29-.11-.58-.23-.87-.38-.28-.15-.54-.33-.76-.56-.22-.23-.4-.5-.54-.83-.14-.33-.21-.72-.21-1.19,0-.43.08-.84.25-1.23.17-.39.42-.73.75-1.03.33-.3.75-.53,1.26-.7.5-.17,1.09-.26,1.77-.26.37,0,.72.03,1.07.1.34.07.67.16.97.28.3.12.58.26.83.42.25.16.47.34.66.53l-.69,1.07c-.08.12-.16.21-.25.26-.09.05-.2.08-.34.08-.14,0-.29-.03-.43-.09-.14-.06-.3-.13-.47-.2-.17-.07-.36-.14-.57-.2-.21-.06-.45-.09-.72-.09-.39,0-.68.07-.89.22-.21.15-.31.35-.31.61,0,.19.07.35.2.47.13.12.31.23.54.33.22.09.47.18.76.27.28.09.57.18.86.29.29.1.58.23.86.37.28.14.53.31.76.52.22.21.4.46.54.75.13.29.2.65.2,1.06,0,.51-.09.97-.28,1.4-.18.43-.46.79-.82,1.1-.36.31-.81.55-1.35.72-.53.17-1.15.25-1.84.25-.35,0-.69-.03-1.04-.1-.35-.07-.68-.15-1.01-.27-.32-.11-.62-.24-.9-.4-.27-.15-.51-.32-.71-.5l.71-1.12c.08-.13.18-.23.3-.31.12-.08.28-.11.47-.11.18,0,.33.04.48.12.14.08.29.16.46.26.16.09.36.18.58.26.22.08.5.12.83.12.24,0,.44-.02.6-.07.16-.05.29-.12.39-.2.1-.09.17-.18.21-.29.05-.1.07-.21.07-.32,0-.2-.07-.37-.21-.5ZM114.4,294.8c.18-.38.5-.73.95-1.04.45-.31,1.06-.57,1.83-.78.77-.21,1.73-.33,2.9-.35v-.43c0-.59-.12-1.03-.37-1.29-.25-.27-.59-.4-1.05-.4-.36,0-.65.04-.88.12-.23.08-.43.17-.61.27-.18.1-.36.19-.53.26-.17.08-.37.12-.61.12-.21,0-.39-.05-.53-.16-.14-.1-.26-.23-.35-.37l-.55-.95c.62-.54,1.3-.95,2.05-1.21.75-.26,1.55-.4,2.41-.4.62,0,1.17.1,1.66.3.49.2.91.48,1.26.83.34.36.61.78.79,1.27.18.49.27,1.03.27,1.61v6.37h-1.39c-.29,0-.51-.04-.65-.12-.15-.08-.27-.24-.37-.49l-.22-.56c-.25.22-.5.41-.74.57-.24.16-.48.3-.73.42-.25.12-.52.2-.81.25-.29.06-.6.08-.95.08-.47,0-.89-.06-1.27-.18-.38-.12-.7-.3-.97-.54-.26-.24-.47-.53-.61-.88-.14-.35-.22-.75-.22-1.21,0-.36.09-.73.28-1.11ZM104.72,289.62c.46-.45,1.01-.8,1.65-1.04.64-.24,1.35-.36,2.13-.36s1.48.12,2.11.36c.63.24,1.18.59,1.64,1.04.45.45.81,1,1.06,1.64.25.65.38,1.37.38,2.18s-.13,1.54-.38,2.2c-.25.65-.61,1.21-1.06,1.66s-1,.81-1.64,1.05c-.64.25-1.34.37-2.11.37s-1.49-.12-2.13-.37c-.64-.25-1.19-.6-1.65-1.05-.46-.45-.82-1.01-1.07-1.66-.25-.65-.38-1.38-.38-2.2s.13-1.53.38-2.18c.25-.64.61-1.19,1.07-1.64ZM96.88,288.38h1.81c.15,0,.28.01.38.04.1.03.19.07.26.12.07.06.12.13.16.22.04.09.07.2.09.33l.15.86c.32-.55.69-.98,1.1-1.3.41-.32.88-.48,1.41-.48.46,0,.83.11,1.12.32l-.2,2.24c-.03.14-.09.24-.16.3-.08.05-.18.08-.31.08-.05,0-.12,0-.21,0-.08,0-.17-.02-.27-.03s-.18-.02-.28-.03c-.09,0-.18-.01-.26-.01-.45,0-.8.12-1.07.36-.27.24-.49.57-.67.99v6.18h-3.05v-10.19ZM82.34,291.31c.23-.61.57-1.14,1-1.6.44-.46.96-.82,1.58-1.09.62-.27,1.32-.4,2.1-.4.67,0,1.29.1,1.85.31.56.21,1.04.51,1.44.91.4.4.72.89.94,1.47.23.58.34,1.24.34,1.97,0,.23,0,.42-.03.56-.02.14-.06.26-.11.34-.05.09-.12.14-.21.18-.09.03-.2.05-.34.05h-5.87c.1.85.36,1.47.78,1.85.42.38.96.57,1.62.57.35,0,.66-.04.91-.13.26-.08.48-.18.68-.29.2-.1.38-.2.55-.28.17-.09.34-.13.53-.13.24,0,.43.09.55.26l.88,1.09c-.31.36-.65.65-1.02.88-.36.23-.74.4-1.12.53-.38.13-.77.22-1.15.27-.38.05-.75.07-1.1.07-.71,0-1.38-.12-2.01-.35-.63-.23-1.17-.58-1.64-1.04-.47-.46-.84-1.03-1.11-1.71-.27-.68-.41-1.47-.41-2.38,0-.68.12-1.33.35-1.93ZM73.15,289.71c.44-.46.96-.82,1.58-1.09.62-.27,1.32-.4,2.1-.4.67,0,1.29.1,1.85.31.56.21,1.04.51,1.44.91.4.4.72.89.94,1.47.23.58.34,1.24.34,1.97,0,.23,0,.42-.03.56-.02.14-.06.26-.11.34-.05.09-.12.14-.21.18-.09.03-.2.05-.34.05h-5.87c.1.85.36,1.47.78,1.85.42.38.96.57,1.62.57.35,0,.66-.04.91-.13.26-.08.48-.18.68-.29.2-.1.38-.2.55-.28.17-.09.34-.13.53-.13.24,0,.43.09.55.26l.88,1.09c-.31.36-.65.65-1.02.88-.36.23-.74.4-1.12.53-.38.13-.77.22-1.15.27-.38.05-.75.07-1.1.07-.71,0-1.38-.12-2.01-.35-.62-.23-1.17-.58-1.64-1.04s-.84-1.03-1.11-1.71c-.27-.68-.41-1.47-.41-2.38,0-.68.12-1.33.35-1.93.23-.61.57-1.14,1-1.6ZM58.55,288.4h1.43v-.38c0-.58.09-1.11.28-1.59.19-.47.46-.88.81-1.21.35-.33.78-.59,1.28-.77.5-.18,1.08-.27,1.72-.27.25,0,.48.01.69.04.21.03.43.07.66.13l-.06,1.48c-.01.21-.1.36-.26.44-.16.08-.33.12-.5.12-.27,0-.51.03-.72.08-.21.05-.38.14-.53.28-.14.13-.25.31-.32.53-.07.22-.11.5-.11.83v.29h3.58v-.77c0-.58.09-1.11.28-1.58.19-.47.46-.87.81-1.21.35-.33.78-.59,1.28-.78.5-.18,1.08-.27,1.72-.27.25,0,.48.01.69.04.21.03.43.08.66.14l-.06,1.48c0,.1-.03.19-.08.26-.05.07-.11.12-.18.17s-.16.07-.24.09c-.08.02-.17.03-.26.03-.27,0-.51.03-.72.08-.21.05-.38.15-.53.28-.14.13-.25.31-.32.53-.07.22-.11.5-.11.83v.67h2.39v2.08h-2.29v8.08h-3.05v-8.08h-3.48v8.08h-3.05v-8.1l-.67-.14c-.23-.05-.41-.13-.56-.25-.14-.11-.21-.27-.21-.49v-1.2ZM48.34,291.27c.25-.64.61-1.19,1.07-1.64.46-.45,1.01-.8,1.65-1.04.64-.24,1.35-.36,2.13-.36s1.48.12,2.11.36c.64.24,1.18.59,1.64,1.04.46.45.81,1,1.06,1.64.25.65.38,1.37.38,2.18s-.13,1.54-.38,2.2c-.25.65-.61,1.21-1.06,1.66-.46.46-1,.81-1.64,1.05-.64.25-1.34.37-2.11.37s-1.49-.12-2.13-.37c-.64-.25-1.19-.6-1.65-1.05-.46-.45-.82-1.01-1.07-1.66-.25-.65-.38-1.38-.38-2.2s.13-1.53.38-2.18ZM39.3,291.39c.22-.64.54-1.19.97-1.66.43-.47.96-.84,1.59-1.1.63-.27,1.36-.4,2.19-.4s1.5.13,2.1.38c.6.25,1.15.63,1.63,1.12l-.81,1.07c-.09.11-.18.2-.27.26-.08.07-.21.1-.36.1s-.29-.04-.41-.11c-.12-.07-.26-.15-.41-.24-.15-.09-.33-.17-.53-.24-.2-.07-.46-.11-.76-.11-.37,0-.7.07-.97.21-.27.14-.5.33-.67.59-.18.25-.31.57-.39.94-.09.37-.13.79-.13,1.25,0,.98.19,1.73.56,2.25.38.52.9.79,1.56.79.35,0,.63-.04.84-.13.21-.09.38-.19.53-.29.14-.11.28-.21.4-.3.12-.09.27-.14.46-.14.24,0,.43.09.55.26l.88,1.09c-.31.36-.64.65-.99.88-.35.23-.7.4-1.07.53-.36.13-.73.22-1.1.27-.37.05-.72.07-1.07.07-.62,0-1.22-.12-1.78-.35-.57-.23-1.06-.58-1.49-1.03-.43-.45-.77-1-1.02-1.66-.25-.66-.38-1.4-.38-2.24,0-.73.11-1.42.33-2.06Z"/>
  </g>
</svg>