<svg xmlns="http://www.w3.org/2000/svg" width="16" height="16" viewBox="0 0 16 16">
    <g fill="#606060">
        <path d="M8.2 1.268c.024.552.49.98 1.041.958l3.254-.134-3.19 3.421c-.377.404-.355 1.037.05 1.414.403.376 1.036.354 1.413-.05L13.88 3.54l.089 3.097c.015.51.408.919.903.966l.125.005c.513-.015.924-.413.968-.912l.003-.117-.16-5.53C15.803.791 15.7.562 15.54.39L15.452.31c-.196-.203-.468-.321-.765-.31L9.159.229c-.552.022-.98.488-.958 1.04zM7.768 14.639c-.022-.552-.488-.981-1.04-.959l-3.254.134 3.19-3.42c.377-.405.355-1.038-.05-1.414-.403-.377-1.036-.355-1.412.05l-3.114 3.338L2 9.27c-.015-.51-.408-.92-.903-.967L.971 8.3c-.513.015-.924.413-.968.912L0 9.328l.16 5.531c.007.255.109.485.27.657l.087.081c.195.202.467.32.764.309l5.529-.227c.552-.023.98-.489.958-1.04z"/>
    </g>
</svg>
